<?xml version="1.0" encoding="utf-8"?>
<!-- Generator: Adobe Illustrator 25.4.1, SVG Export Plug-In . SVG Version: 6.00 Build 0)  -->
<svg version="1.1" id="Слой_1" xmlns="http://www.w3.org/2000/svg" xmlns:xlink="http://www.w3.org/1999/xlink" x="0px" y="0px"
	 viewBox="0 0 22 23" style="enable-background:new 0 0 22 23;" xml:space="preserve">
<style type="text/css">
	.st0{fill:#728DBC;}
</style>
<path class="st0" d="M4.1,13.1h12.3c2.7,0,4.9-2.2,4.9-4.9c0-2.7-2.2-4.9-4.9-4.9c0,0-0.1,0-0.1,0c-1.1-2-3.2-3.3-5.7-3.3
	C7.6,0,5.1,2.1,4.3,5c-0.1,0-0.1,0-0.2,0C1.8,4.9,0,6.8,0,9C0,11.3,1.8,13.1,4.1,13.1L4.1,13.1z"/>
<path class="st0" d="M0,14.8h21.4v1.6H0V14.8z"/>
<path class="st0" d="M0,18.1h21.4v1.6H0V18.1z"/>
<path class="st0" d="M0,21.4h21.4V23H0V21.4z"/>
</svg>
