<?xml version="1.0" encoding="utf-8"?>
<!-- Generator: Adobe Illustrator 25.4.1, SVG Export Plug-In . SVG Version: 6.00 Build 0)  -->
<svg version="1.1" id="Слой_1" xmlns="http://www.w3.org/2000/svg" xmlns:xlink="http://www.w3.org/1999/xlink" x="0px" y="0px"
	 viewBox="0 0 20 25" style="enable-background:new 0 0 20 25;" xml:space="preserve">
<style type="text/css">
	.st0{fill:#728DBC;}
</style>
<path class="st0" d="M20,9.5C19.6,4.2,15.2,0,10,0S0.4,4.2,0,9.5c-0.1,1.4,0.1,2.7,0.6,4.1c0.5,1.3,1.2,2.5,2.3,3.6l6.5,7.6
	C9.6,24.9,9.8,25,10,25c0.2,0,0.4-0.1,0.6-0.3l6.5-7.6c1-1.1,1.8-2.3,2.3-3.6C19.9,12.2,20.1,10.9,20,9.5z M10,12.7
	c-1.7,0-3.1-1.4-3.1-3.2c0-1.7,1.4-3.2,3.1-3.2c1.7,0,3.1,1.4,3.1,3.2C13.1,11.2,11.7,12.7,10,12.7z"/>
<path class="st0" d="M20,9.5C19.6,4.2,15.2,0,10,0S0.4,4.2,0,9.5c-0.1,1.4,0.1,2.7,0.6,4.1c0.5,1.3,1.2,2.5,2.3,3.6l6.5,7.6
	C9.6,24.9,9.8,25,10,25c0.2,0,0.4-0.1,0.6-0.3l6.5-7.6c1-1.1,1.8-2.3,2.3-3.6C19.9,12.2,20.1,10.9,20,9.5z M10,12.7
	c-1.7,0-3.1-1.4-3.1-3.2c0-1.7,1.4-3.2,3.1-3.2c1.7,0,3.1,1.4,3.1,3.2C13.1,11.2,11.7,12.7,10,12.7z"/>
</svg>
