<?xml version="1.0" encoding="utf-8"?>
<!-- Generator: Adobe Illustrator 25.4.1, SVG Export Plug-In . SVG Version: 6.00 Build 0)  -->
<svg version="1.1" id="Слой_1" xmlns="http://www.w3.org/2000/svg" xmlns:xlink="http://www.w3.org/1999/xlink" x="0px" y="0px"
	 viewBox="0 0 23 22" style="enable-background:new 0 0 23 22;" xml:space="preserve">
<style type="text/css">
	.st0{fill:#728DBC;}
</style>
<path class="st0" d="M16.4,11.5C16.4,11.5,16.4,11.5,16.4,11.5c-1.2-2-3.3-3.3-5.7-3.3c-3.1,0-5.6,2.1-6.3,5c-0.1,0-0.1,0-0.2,0
	C1.8,13.1,0,15,0,17.2c0,2.3,1.8,4.1,4.1,4.1h12.3c2.7,0,4.9-2.2,4.9-4.9S19.1,11.5,16.4,11.5L16.4,11.5z"/>
<path class="st0" d="M21.6,5.7c-2.3,0-4.2-1.9-4.2-4.2c0-0.5,0.1-1,0.3-1.4c-1.6,0.6-2.8,2.1-2.8,4c0,2.3,1.9,4.2,4.2,4.2
	c1.8,0,3.4-1.2,4-2.8C22.5,5.6,22.1,5.7,21.6,5.7L21.6,5.7z"/>
</svg>
