<?xml version="1.0" encoding="utf-8"?>
<!-- Generator: Adobe Illustrator 25.4.1, SVG Export Plug-In . SVG Version: 6.00 Build 0)  -->
<svg version="1.1" id="Слой_1" xmlns="http://www.w3.org/2000/svg" xmlns:xlink="http://www.w3.org/1999/xlink" x="0px" y="0px"
	 viewBox="0 0 24 22" style="enable-background:new 0 0 24 22;" xml:space="preserve">
<style type="text/css">
	.st0{fill:#728DBC;}
</style>
<path class="st0" d="M16.6,11.6C16.6,11.6,16.5,11.6,16.6,11.6c-1.2-2-3.4-3.3-5.8-3.3c-3.1,0-5.7,2.1-6.4,5c-0.1,0-0.1,0-0.2,0
	c-2.3,0-4.1,1.9-4.1,4.1s1.9,4.1,4.1,4.1h12.4c2.7,0,5-2.2,5-5C21.6,13.8,19.3,11.6,16.6,11.6L16.6,11.6z"/>
<path class="st0" d="M17.4,10c0.5,0.1,0.9,0.2,1.3,0.3c0.7-0.7,1.2-1.7,1.2-2.9c0-2.3-1.9-4.1-4.1-4.1c-2,0-3.7,1.5-4.1,3.4
	C14,6.9,16.1,8.2,17.4,10L17.4,10z"/>
<path class="st0" d="M14.9,0h1.7v1.7h-1.7V0z"/>
<path class="st0" d="M21.6,6.6h1.7v1.7h-1.7V6.6z"/>
<path class="st0" d="M19.3,2.8l1.2-1.2l1.2,1.2l-1.2,1.2L19.3,2.8z"/>
<path class="st0" d="M9.9,2.8l1.2-1.2l1.2,1.2l-1.2,1.2L9.9,2.8z"/>
</svg>
