<?xml version="1.0" encoding="utf-8"?>
<!-- Generator: Adobe Illustrator 25.4.1, SVG Export Plug-In . SVG Version: 6.00 Build 0)  -->
<svg version="1.1" id="Слой_1" xmlns="http://www.w3.org/2000/svg" xmlns:xlink="http://www.w3.org/1999/xlink" x="0px" y="0px"
	 viewBox="0 0 21 23" style="enable-background:new 0 0 21 23;" xml:space="preserve">
<style type="text/css">
	.st0{fill:#728DBC;}
</style>
<path class="st0" d="M16.2,3.2C16.1,3.2,16.1,3.2,16.2,3.2C15,1.3,12.9,0,10.5,0C7.5,0,5,2.1,4.3,4.9c-0.1,0-0.1,0-0.2,0
	c-2.2,0-4,1.8-4,4c0,2.2,1.8,4,4,4h12.1c2.7,0,4.8-2.2,4.8-4.8C21,5.4,18.8,3.2,16.2,3.2L16.2,3.2z"/>
<path class="st0" d="M4.8,14.5h1.6v3.2H4.8V14.5z"/>
<path class="st0" d="M4.8,19.4h1.6v3.2H4.8V19.4z"/>
<path class="st0" d="M9.7,14.5h1.6v3.2H9.7V14.5z"/>
<path class="st0" d="M9.7,19.4h1.6v3.2H9.7V19.4z"/>
<path class="st0" d="M14.5,14.5h1.6v3.2h-1.6V14.5z"/>
<path class="st0" d="M14.5,19.4h1.6v3.2h-1.6V19.4z"/>
</svg>
