<?xml version="1.0" encoding="utf-8"?>
<!-- Generator: Adobe Illustrator 25.4.1, SVG Export Plug-In . SVG Version: 6.00 Build 0)  -->
<svg version="1.1" id="Слой_1" xmlns="http://www.w3.org/2000/svg" xmlns:xlink="http://www.w3.org/1999/xlink" x="0px" y="0px"
	 viewBox="0 0 24 25" style="enable-background:new 0 0 24 25;" xml:space="preserve">
<style type="text/css">
	.st0{fill-rule:evenodd;clip-rule:evenodd;fill:#728DBC;}
</style>
<path class="st0" d="M18.6,21.1c-2,1.7-4.5,2.6-7.2,2.6C5.1,23.8,0,18.4,0,11.9C0,5.3,5.1,0,11.4,0c6.3,0,11.4,5.3,11.4,11.9
	c0,2.8-0.9,5.4-2.5,7.5l3.4,3.5c0.5,0.5,0.5,1.3,0,1.8c-0.5,0.5-1.2,0.5-1.7,0L18.6,21.1z M2.4,11.9c0-5.2,4-9.4,9-9.4
	c5,0,9,4.2,9,9.4c0,2.5-1,4.8-2.5,6.5c-0.1,0-0.1,0.1-0.1,0.1c0,0-0.1,0.1-0.1,0.2c-1.6,1.6-3.8,2.6-6.2,2.6
	C6.4,21.2,2.4,17.1,2.4,11.9L2.4,11.9z"/>
</svg>
