<?xml version="1.0" encoding="utf-8"?>
<!-- Generator: Adobe Illustrator 25.4.1, SVG Export Plug-In . SVG Version: 6.00 Build 0)  -->
<svg version="1.1" id="Слой_1" xmlns="http://www.w3.org/2000/svg" xmlns:xlink="http://www.w3.org/1999/xlink" x="0px" y="0px"
	 viewBox="0 0 23 23" style="enable-background:new 0 0 23 23;" xml:space="preserve">
<style type="text/css">
	.st0{fill:#728DBC;}
</style>
<path class="st0" d="M17.7,11.5c0,3.4-2.8,6.2-6.2,6.2c-3.4,0-6.2-2.8-6.2-6.2c0-3.4,2.8-6.2,6.2-6.2C14.9,5.3,17.7,8.1,17.7,11.5z"
	/>
<path class="st0" d="M10.6,0h1.8v3.5h-1.8V0z"/>
<path class="st0" d="M10.6,19.5h1.8V23h-1.8V19.5z"/>
<path class="st0" d="M0,10.6h3.5v1.8H0V10.6z"/>
<path class="st0" d="M19.5,10.6H23v1.8h-3.5V10.6z"/>
<path class="st0" d="M2.7,4L4,2.7l2.5,2.5L5.2,6.5L2.7,4z"/>
<path class="st0" d="M16.5,17.8l1.3-1.3l2.5,2.5L19,20.3L16.5,17.8z"/>
<path class="st0" d="M2.7,19l2.5-2.5l1.3,1.3L4,20.3L2.7,19z"/>
<path class="st0" d="M16.5,5.2L19,2.7L20.3,4l-2.5,2.5L16.5,5.2z"/>
</svg>
