<?xml version="1.0" encoding="utf-8"?>
<!-- Generator: Adobe Illustrator 25.4.1, SVG Export Plug-In . SVG Version: 6.00 Build 0)  -->
<svg version="1.1" id="Слой_1" xmlns="http://www.w3.org/2000/svg" xmlns:xlink="http://www.w3.org/1999/xlink" x="0px" y="0px"
	 viewBox="0 0 23 21" style="enable-background:new 0 0 23 21;" xml:space="preserve">
<style type="text/css">
	.st0{fill:#728DBC;}
</style>
<path class="st0" d="M10.4,0h1.7v3.5h-1.7V0z"/>
<path class="st0" d="M0,10.4h3.5v1.7H0V10.4z"/>
<path class="st0" d="M19,10.4h3.5v1.7H19V10.4z"/>
<path class="st0" d="M2.7,3.9l1.2-1.2l2.4,2.4L5.1,6.4L2.7,3.9z"/>
<path class="st0" d="M16.1,5.1l2.4-2.4l1.2,1.2l-2.4,2.4L16.1,5.1z"/>
<path class="st0" d="M11.2,5.2c-3.3,0-6.1,2.7-6.1,6.1c0,0.3,0,0.6,0.1,0.9h11.9c0-0.3,0.1-0.6,0.1-0.9C17.3,7.9,14.6,5.2,11.2,5.2
	L11.2,5.2z"/>
<path class="st0" d="M6.9,20.8h8.7l-4.3-5.2L6.9,20.8z"/>
</svg>
