<?xml version="1.0" encoding="utf-8"?>
<!-- Generator: Adobe Illustrator 25.4.1, SVG Export Plug-In . SVG Version: 6.00 Build 0)  -->
<svg version="1.1" id="Слой_1" xmlns="http://www.w3.org/2000/svg" xmlns:xlink="http://www.w3.org/1999/xlink" x="0px" y="0px"
	 viewBox="0 0 22 24" style="enable-background:new 0 0 22 24;" xml:space="preserve">
<style type="text/css">
	.st0{fill:#728DBC;}
</style>
<path class="st0" d="M8.5,15.2l-3.4,5.1h3.4l-1.7,3.4l6.8-5.1h-3.4l3.4-3.4H8.5z"/>
<path class="st0" d="M16.9,3.4C16.9,3.4,16.9,3.4,16.9,3.4C15.7,1.4,13.5,0,11,0C7.8,0,5.2,2.2,4.5,5.1c-0.1,0-0.2,0-0.2,0
	C1.9,5.1,0,7,0,9.3c0,2.3,1.9,4.2,4.2,4.2h12.7c2.8,0,5.1-2.3,5.1-5.1C22,5.7,19.7,3.4,16.9,3.4L16.9,3.4z"/>
</svg>
